# xmcd CD database file
#
# Track frame offsets:
#	150
#	37650
#	59805
#	83535
#	105597
#	127065
#	149280
#	166942
#	189077
#	206710
#
# Disc length: 3056 seconds
#
# Revision: 5
# Processed by: cddbd v1.5.2PL0 Copyright (c) Steve Scherf et al.
# Submitted via: CDex 2.21
#
DISCID=820bee0a
DTITLE=Derek Sherinian - Mythology
DYEAR=2004
DGENRE=Instrumental
TTITLE0=Day Of The Dead
TTITLE1=Alpha Burst
TTITLE2=God Of War
TTITLE3=El Flamingo Suave
TTITLE4=Goin' To Church
TTITLE5=One Way Or The Other
TTITLE6=Trojan Horse
TTITLE7=A View From The Sky
TTITLE8=The River Song
TTITLE9=Derek Sherinian Live Solo 2003 (Bonus Track)
EXTD=YEAR: 2004
EXTT0=
EXTT1=
EXTT2=
EXTT3=
EXTT4=
EXTT5=
EXTT6=
EXTT7=
EXTT8=
EXTT9=
PLAYORDER=
